<?xml version="1.0" encoding="utf-8"?>
<!-- Generator: Adobe Illustrator 20.1.0, SVG Export Plug-In . SVG Version: 6.00 Build 0)  -->
<svg version="1.1" id="Layer_1" xmlns="http://www.w3.org/2000/svg" xmlns:xlink="http://www.w3.org/1999/xlink" x="0px" y="0px"
	 viewBox="0 0 263 51" style="enable-background:new 0 0 263 51;" xml:space="preserve">
<style type="text/css">
	.st0{fill:#5B0F15;stroke:#5B0F15;stroke-width:0.9061;stroke-linecap:round;stroke-linejoin:round;stroke-miterlimit:10;}
	.st1{fill:#C04747;}
	.st2{fill:#5B0F15;stroke:#5B0F15;stroke-width:1.0571;stroke-linecap:round;stroke-linejoin:round;stroke-miterlimit:10;}
	.st3{fill:#F2D686;stroke:#F2D686;stroke-width:0.5068;stroke-linecap:round;stroke-linejoin:round;stroke-miterlimit:10;}
	.st4{fill:#676868;}
	.st5{fill:#C04748;stroke:#C04748;stroke-width:0.5831;stroke-linecap:round;stroke-linejoin:round;}
	.st6{fill:#C04748;stroke:#C04748;stroke-width:0.3535;stroke-linecap:round;stroke-linejoin:round;}
	.st7{fill:#C04748;stroke:#C04748;stroke-width:0.3436;stroke-linecap:round;stroke-linejoin:round;}
	.st8{fill:#C04748;stroke:#C04748;stroke-width:0.4665;stroke-linecap:round;stroke-linejoin:round;}
	.st9{fill:#C04748;stroke:#C04748;stroke-width:0.3987;stroke-linecap:round;stroke-linejoin:round;}
	.st10{fill:#333333;stroke:#333333;stroke-width:0.2066;}
	.st11{fill:#333333;}
</style>
<g>
	<g>
		<g>
			<path class="st0" d="M210.6,28.7c0.3,0,0.5,0,0.7,0c0.2,0,0.5,0,0.7,0c2,0,3.6,0.6,4.8,1.8c1.2,1.2,1.9,2.8,1.9,4.7
				c0,2.7-1.1,5.1-3.4,7c-2.3,1.9-5.1,2.9-8.4,2.9c-2.2,0-4-0.5-5.5-1.4c-1.5-0.9-2.2-2-2.2-3.2c0-0.7,0.3-1.2,0.8-1.7
				c0.5-0.5,1.1-0.7,1.8-0.7c0.7,0,1.4,0.5,2,1.5c0.1,0.2,0.2,0.3,0.3,0.4c0.5,0.8,1,1.3,1.6,1.6c0.5,0.3,1.2,0.5,2,0.5
				c1.7,0,3-0.6,4.2-1.7c1.1-1.1,1.7-2.5,1.7-4.2c0-1.6-0.5-2.9-1.4-3.8c-0.9-0.9-2.1-1.4-3.7-1.4c-0.4,0-0.9,0.1-1.5,0.2
				c-0.5,0.1-1.3,0.3-2.2,0.6l-0.7-1.8c2.6-1.1,4.6-2.2,5.8-3.3c1.3-1.2,1.9-2.4,1.9-3.8c0-1.2-0.4-2.2-1.1-3
				c-0.8-0.8-1.7-1.2-3-1.2c-1,0-2,0.3-2.9,0.8c-0.9,0.6-1.8,1.5-2.7,2.7l-1.9-1.2c1.1-1.9,2.4-3.3,3.9-4.3c1.5-1,3.2-1.5,5.1-1.5
				c2.2,0,4.1,0.6,5.6,1.9c1.5,1.3,2.2,2.9,2.2,4.8c0,1.5-0.5,2.8-1.5,3.9C214.3,27,212.7,27.9,210.6,28.7z"/>
			<path class="st0" d="M230.3,15.3c3.3,0,5.9,1.3,7.7,3.8c1.9,2.5,2.8,6,2.8,10.4c0,4.7-1,8.5-3,11.3c-2,2.8-4.7,4.3-8.1,4.3
				c-3.1,0-5.6-1.3-7.5-3.9c-1.9-2.6-2.8-6-2.8-10.4c0-4.6,1-8.4,3.1-11.3C224.5,16.7,227.1,15.3,230.3,15.3z M229.9,17.9
				c-1.7,0-3,0.9-3.9,2.8c-0.8,1.8-1.3,4.7-1.3,8.5c0,4.4,0.5,7.7,1.4,10c0.9,2.2,2.4,3.4,4.2,3.4c1.7,0,3-0.9,3.9-2.8
				c0.8-1.9,1.3-4.7,1.3-8.5c0-4.4-0.5-7.7-1.4-9.9C233.2,19,231.8,17.9,229.9,17.9z"/>
		</g>
		<g>
			<path class="st1" d="M210.6,28.7c0.3,0,0.5,0,0.7,0c0.2,0,0.5,0,0.7,0c2,0,3.6,0.6,4.8,1.8c1.2,1.2,1.9,2.8,1.9,4.7
				c0,2.7-1.1,5.1-3.4,7c-2.3,1.9-5.1,2.9-8.4,2.9c-2.2,0-4-0.5-5.5-1.4c-1.5-0.9-2.2-2-2.2-3.2c0-0.7,0.3-1.2,0.8-1.7
				c0.5-0.5,1.1-0.7,1.8-0.7c0.7,0,1.4,0.5,2,1.5c0.1,0.2,0.2,0.3,0.3,0.4c0.5,0.8,1,1.3,1.6,1.6c0.5,0.3,1.2,0.5,2,0.5
				c1.7,0,3-0.6,4.2-1.7c1.1-1.1,1.7-2.5,1.7-4.2c0-1.6-0.5-2.9-1.4-3.8c-0.9-0.9-2.1-1.4-3.7-1.4c-0.4,0-0.9,0.1-1.5,0.2
				c-0.5,0.1-1.3,0.3-2.2,0.6l-0.7-1.8c2.6-1.1,4.6-2.2,5.8-3.3c1.3-1.2,1.9-2.4,1.9-3.8c0-1.2-0.4-2.2-1.1-3
				c-0.8-0.8-1.7-1.2-3-1.2c-1,0-2,0.3-2.9,0.8c-0.9,0.6-1.8,1.5-2.7,2.7l-1.9-1.2c1.1-1.9,2.4-3.3,3.9-4.3c1.5-1,3.2-1.5,5.1-1.5
				c2.2,0,4.1,0.6,5.6,1.9c1.5,1.3,2.2,2.9,2.2,4.8c0,1.5-0.5,2.8-1.5,3.9C214.3,27,212.7,27.9,210.6,28.7z"/>
			<path class="st1" d="M230.3,15.3c3.3,0,5.9,1.3,7.7,3.8c1.9,2.5,2.8,6,2.8,10.4c0,4.7-1,8.5-3,11.3c-2,2.8-4.7,4.3-8.1,4.3
				c-3.1,0-5.6-1.3-7.5-3.9c-1.9-2.6-2.8-6-2.8-10.4c0-4.6,1-8.4,3.1-11.3C224.5,16.7,227.1,15.3,230.3,15.3z M229.9,17.9
				c-1.7,0-3,0.9-3.9,2.8c-0.8,1.8-1.3,4.7-1.3,8.5c0,4.4,0.5,7.7,1.4,10c0.9,2.2,2.4,3.4,4.2,3.4c1.7,0,3-0.9,3.9-2.8
				c0.8-1.9,1.3-4.7,1.3-8.5c0-4.4-0.5-7.7-1.4-9.9C233.2,19,231.8,17.9,229.9,17.9z"/>
		</g>
		<g>
			<path class="st2" d="M214.8,47.9c0,1.1,0.6,1.8,1.7,1.8c2.6,0,3.7-3.7,4.1-5.5c0.2-0.9,0.5-2.4,0.8-4c-1,2-2.4,3.4-4.2,3.4
				c-1.5,0-2.1-1-2.1-2.3c0-2.1,1.3-4.9,1.3-6.7c0-0.8-0.3-1.5-1.1-1.5c-1.4,0-2.1,2.1-2.1,3.4c0,0.4,0.1,0.7,0.2,1
				c-1,0-1.3-0.6-1.3-1.3c0-1.6,1.7-3.5,3.7-3.5c1.5,0,2,1,2,2c0,1.5-1.3,4.4-1.3,6.5c0,1.1,0.4,1.9,1.4,1.9c1.8,0,3.3-2.6,4.1-4.9
				c0.7-2.8,1.5-5.5,2.3-5.5c0.3,0,0.7,0.2,1.1,0.6c-1.3,2.1-1.6,3.2-3.2,9.7c-0.8,3.3-1.9,7.4-5.6,7.4c-1.5,0-2.7-0.6-2.7-1.8
				c0-0.7,0.4-1.2,1.2-1.5C214.9,47.2,214.8,47.6,214.8,47.9z"/>
			<path class="st2" d="M225.3,44.4c-0.1,0.3-0.1,0.5-0.1,0.7c0,0.8,0.3,1.6,1.5,1.6c1.7,0,3.4-1.6,4.4-3.5l0.2,0.2
				c-1.1,2.3-3.1,3.8-5,3.8c-1.6,0-2.4-1-2.4-2.3c0-2.3,2.7-5.6,5-5.6c0.6,0,1.2,0.2,1.2,1.2C230.1,42.7,227.5,44.2,225.3,44.4z
				 M225.4,44.1c1.4-0.5,3.9-1.9,3.9-3.6c0-0.3-0.1-0.4-0.4-0.4C227.6,40.1,225.9,42.2,225.4,44.1z"/>
			<path class="st2" d="M236.9,42.8c0,0.4-1.1,1.8-1.1,2.7c0,0.4,0.2,0.9,0.7,0.9c0.7,0,2-1,3.1-3.1l0.2,0.2
				c-0.8,2.1-2.5,3.6-3.9,3.6c-1,0-1.4-0.7-1.4-1.4c0-0.2,0-0.4,0.1-0.6c-1.1,1.5-2,2.3-3,2.3c-0.8,0-1.4-0.5-1.4-1.6
				c0-2.3,2.9-6,5.4-6c1,0,1.8,0.6,1.8,1.5c0,0.6-0.4,0.8-1,0.8c0.1-0.2,0.1-0.5,0.1-0.7c0-0.6-0.3-1.1-1-1.1c-1.8,0-4,3.6-4,5.5
				c0,0.5,0.2,0.8,0.5,0.8c1.2,0,3.1-2.9,4.1-4.3C236.3,42.4,236.9,42.6,236.9,42.8z"/>
			<path class="st2" d="M239.1,44c0.4-0.7,1-2.1,1.6-3.7c-0.1-0.1-0.2-0.3-0.2-0.5c0-0.8,0.6-1.3,0.8-1.3c0.3,0,0.3,0.3,0.3,0.5
				c0,0.1-0.2,0.6-0.2,0.7c0,0.7,2,1.1,2,2.7c0,1.2-1,2.5-1,3.3c0,0.5,0.3,0.6,0.6,0.6c1.2,0,2.8-1.8,3.3-2.9l0.3,0.2
				c-0.7,1.7-2.4,3.4-4.1,3.4c-0.9,0-1.4-0.5-1.4-1.3c0-1.2,1.1-2.6,1.1-3.7c0-0.8-0.6-1.1-1.1-1.5c-0.6,1.5-1.3,3-1.7,3.8L239.1,44
				z"/>
			<path class="st2" d="M246.7,43.2c0.8-0.9,1.4-1.8,1.9-2.8v-0.2c0-1,0.4-1.3,0.8-1.3c0.2,0,0.3,0.1,0.3,0.3c0,0.1-0.1,0.4-0.1,0.9
				c0,1.3,1,2.9,1,4.7c0,0.4,0,0.7-0.1,1c0.9-0.2,1.7-0.7,2.5-2.2l0.2,0.2c-0.5,1.4-1.6,2.1-2.7,2.3c-0.4,1.1-1.4,1.6-2.5,1.6
				c-1.8,0-2.4-1.4-2.4-2.6C245.4,43.4,246.4,43.4,246.7,43.2z M249.1,45.9c-1.1-0.2-2-1-2.4-1.6c-0.3,0-0.4,0.3-0.4,0.7
				c0,0.9,0.6,1.9,1.6,1.9C248.2,46.8,248.8,46.7,249.1,45.9z M248.7,41.1c-0.6,1-1.3,2-1.9,2.5c0.4,0.8,1.2,1.7,2.4,1.9
				c0-0.3,0.1-0.5,0.1-0.9C249.3,43.4,248.9,42.2,248.7,41.1z"/>
		</g>
		<g>
			<g>
				<path class="st3" d="M214.8,47.9c0,1.1,0.6,1.8,1.7,1.8c2.6,0,3.7-3.7,4.1-5.5c0.2-0.9,0.5-2.4,0.8-4c-1,2-2.4,3.4-4.2,3.4
					c-1.5,0-2.1-1-2.1-2.3c0-2.1,1.3-4.9,1.3-6.7c0-0.8-0.3-1.5-1.1-1.5c-1.4,0-2.1,2.1-2.1,3.4c0,0.4,0.1,0.7,0.2,1
					c-1,0-1.3-0.6-1.3-1.3c0-1.6,1.7-3.5,3.7-3.5c1.5,0,2,1,2,2c0,1.5-1.3,4.4-1.3,6.5c0,1.1,0.4,1.9,1.4,1.9c1.8,0,3.3-2.6,4.1-4.9
					c0.7-2.8,1.5-5.5,2.3-5.5c0.3,0,0.7,0.2,1.1,0.6c-1.3,2.1-1.6,3.2-3.2,9.7c-0.8,3.3-1.9,7.4-5.6,7.4c-1.5,0-2.7-0.6-2.7-1.8
					c0-0.7,0.4-1.2,1.2-1.5C214.9,47.2,214.8,47.6,214.8,47.9z"/>
				<path class="st3" d="M225.2,44.4c-0.1,0.3-0.1,0.5-0.1,0.7c0,0.8,0.3,1.6,1.5,1.6c1.7,0,3.4-1.6,4.4-3.5l0.2,0.2
					c-1.1,2.3-3.1,3.8-5,3.8c-1.6,0-2.4-1-2.4-2.3c0-2.3,2.7-5.6,5-5.6c0.6,0,1.2,0.2,1.2,1.2C230.1,42.6,227.5,44.2,225.2,44.4z
					 M225.3,44.1c1.4-0.5,3.9-1.9,3.9-3.6c0-0.3-0.1-0.4-0.4-0.4C227.6,40,225.9,42.2,225.3,44.1z"/>
				<path class="st3" d="M236.9,42.8c0,0.4-1.1,1.8-1.1,2.7c0,0.4,0.2,0.9,0.7,0.9c0.7,0,2-1,3.1-3.1l0.2,0.2
					c-0.8,2.1-2.5,3.6-3.9,3.6c-1,0-1.4-0.7-1.4-1.4c0-0.2,0-0.4,0.1-0.6c-1.1,1.5-2,2.3-3,2.3c-0.8,0-1.4-0.5-1.4-1.6
					c0-2.3,2.9-6,5.4-6c1,0,1.8,0.6,1.8,1.5c0,0.6-0.4,0.8-1,0.8c0.1-0.2,0.1-0.5,0.1-0.7c0-0.6-0.3-1.1-1-1.1c-1.8,0-4,3.6-4,5.5
					c0,0.5,0.2,0.8,0.5,0.8c1.2,0,3.1-2.9,4.1-4.3C236.3,42.4,236.9,42.5,236.9,42.8z"/>
				<path class="st3" d="M239.1,44c0.4-0.7,1-2.1,1.6-3.7c-0.1-0.1-0.2-0.3-0.2-0.5c0-0.8,0.6-1.3,0.8-1.3c0.3,0,0.3,0.3,0.3,0.5
					c0,0.1-0.2,0.6-0.2,0.7c0,0.7,2,1.1,2,2.7c0,1.2-1,2.5-1,3.3c0,0.5,0.3,0.6,0.6,0.6c1.2,0,2.8-1.8,3.3-2.9l0.3,0.2
					c-0.7,1.7-2.4,3.4-4.1,3.4c-0.9,0-1.4-0.5-1.4-1.3c0-1.2,1.1-2.6,1.1-3.7c0-0.8-0.6-1.1-1.1-1.5c-0.6,1.5-1.3,3-1.7,3.8
					L239.1,44z"/>
				<path class="st3" d="M246.6,43.2c0.8-0.9,1.4-1.8,1.9-2.8v-0.2c0-1,0.4-1.3,0.8-1.3c0.2,0,0.3,0.1,0.3,0.3
					c0,0.1-0.1,0.4-0.1,0.9c0,1.3,1,2.9,1,4.7c0,0.4,0,0.7-0.1,1c0.9-0.2,1.7-0.7,2.5-2.2l0.2,0.2c-0.5,1.4-1.6,2.1-2.7,2.3
					c-0.4,1.1-1.4,1.6-2.5,1.6c-1.8,0-2.4-1.4-2.4-2.6C245.4,43.4,246.4,43.4,246.6,43.2z M249.1,45.8c-1.1-0.2-2-1-2.4-1.6
					c-0.3,0-0.4,0.3-0.4,0.7c0,0.9,0.6,1.9,1.6,1.9C248.2,46.8,248.8,46.7,249.1,45.8z M248.7,41.1c-0.6,1-1.3,2-1.9,2.5
					c0.4,0.8,1.2,1.7,2.4,1.9c0-0.3,0.1-0.5,0.1-0.9C249.3,43.4,248.9,42.1,248.7,41.1z"/>
			</g>
		</g>
	</g>
	<g>
		<g>
			<path class="st4" d="M49,46.6l1.4-8.2h1.1l-1.3,7.2h3.3l-0.2,1H49z"/>
			<path class="st4" d="M54.5,46.6l1-5.7h1.1l-1,5.7H54.5z M55.7,39.6l0.2-1.2H57l-0.2,1.2H55.7z"/>
			<path class="st4" d="M59.5,41.7l-0.9,4.9h-1.1l0.9-4.9h-0.8l0.3-0.8h0.7l0.3-1.4c0.2-0.9,0.6-1.6,1.7-1.6c0.5,0,0.8,0.1,0.9,0.2
				l-0.3,0.9c-0.2-0.1-0.4-0.1-0.6-0.1c-0.5,0-0.6,0.2-0.8,1.4l-0.1,0.7h1.3l-0.2,0.8H59.5z"/>
			<path class="st4" d="M63.4,44.2c-0.5,0-0.9-0.1-1-0.1c0,1.4,0.7,1.7,1.5,1.7c0.5,0,1.1-0.1,1.6-0.3l0,0.8
				c-0.4,0.2-1.1,0.4-1.8,0.4c-1.6,0-2.3-1.1-2.3-2.5c0-1.8,1.2-3.5,3.1-3.5c1.1,0,1.7,0.6,1.7,1.5C66.1,43.1,65.4,44.2,63.4,44.2z
				 M62.5,43.4c0.2,0,0.3,0.1,0.8,0.1c1.4,0,1.8-0.6,1.8-1.1s-0.4-0.7-0.8-0.7C63.5,41.7,62.9,42.2,62.5,43.4z"/>
			<path class="st4" d="M67.9,40.2L67.7,40l0.5-1l-0.3-0.1l0.2-1h1.1l-0.2,1L67.9,40.2z"/>
			<path class="st4" d="M68.8,46.2l0.3-1c0.2,0.2,0.8,0.6,1.5,0.6c0.7,0,1.1-0.3,1.1-0.8c0-0.5-0.5-0.7-0.9-0.8
				c-0.7-0.2-1.3-0.4-1.3-1.4c0-0.9,0.6-2,2.3-2c0.7,0,1.2,0.2,1.4,0.4l-0.3,1c-0.2-0.3-0.7-0.5-1.2-0.5c-0.6,0-1.1,0.3-1.1,0.9
				c0,0.5,0.3,0.6,1,0.8c0.5,0.2,1.2,0.5,1.2,1.4c0,0.7-0.3,2-2.3,2C69.5,46.8,69,46.4,68.8,46.2z"/>
			<path class="st4" d="M77.9,45.9l-0.6,3.5h-1.1l1.5-8.5h0.9l0,0.8c0.5-0.6,1-0.9,1.7-0.9c1.3,0,1.9,1.1,1.9,2.4
				c0,1.8-1.2,3.5-2.9,3.5C78.8,46.8,78.3,46.5,77.9,45.9z M78.2,44.2c0,1.1,0.5,1.6,1.1,1.6c1.1,0,1.8-1.2,1.8-2.5
				c0-0.9-0.4-1.6-1.1-1.6C79.1,41.7,78.2,42.7,78.2,44.2z"/>
			<path class="st4" d="M83.3,44.3c0-1.9,1.3-3.5,3.1-3.5c1.5,0,2.2,1.1,2.2,2.4c0,1.9-1.3,3.5-3.1,3.5C84,46.8,83.3,45.7,83.3,44.3
				z M84.4,44.2c0,1,0.4,1.6,1.2,1.6c1.2,0,1.9-1.1,1.9-2.5c0-1.1-0.4-1.6-1.2-1.6C85.1,41.7,84.4,42.9,84.4,44.2z"/>
			<path class="st4" d="M89.2,46.2l0.3-1c0.2,0.2,0.8,0.6,1.5,0.6c0.7,0,1.1-0.3,1.1-0.8c0-0.5-0.5-0.7-0.9-0.8
				c-0.7-0.2-1.3-0.4-1.3-1.4c0-0.9,0.6-2,2.3-2c0.7,0,1.2,0.2,1.4,0.4l-0.3,1c-0.2-0.3-0.7-0.5-1.2-0.5c-0.6,0-1.1,0.3-1.1,0.9
				c0,0.5,0.3,0.6,1,0.8c0.5,0.2,1.2,0.5,1.2,1.4c0,0.7-0.3,2-2.3,2C90,46.8,89.4,46.4,89.2,46.2z"/>
			<path class="st4" d="M94,46.2l0.3-1c0.2,0.2,0.8,0.6,1.5,0.6c0.7,0,1.1-0.3,1.1-0.8c0-0.5-0.5-0.7-0.9-0.8
				c-0.7-0.2-1.3-0.4-1.3-1.4c0-0.9,0.6-2,2.3-2c0.7,0,1.2,0.2,1.4,0.4l-0.3,1c-0.2-0.3-0.7-0.5-1.2-0.5c-0.6,0-1.1,0.3-1.1,0.9
				c0,0.5,0.3,0.6,1,0.8c0.5,0.2,1.2,0.5,1.2,1.4c0,0.7-0.3,2-2.3,2C94.8,46.8,94.3,46.4,94,46.2z"/>
			<path class="st4" d="M99.1,46.6l1-5.7h1.1l-1,5.7H99.1z M100.3,39.6l0.2-1.2h1.1l-0.2,1.2H100.3z"/>
			<path class="st4" d="M103.3,45.9l-0.2,0.7h-1l1.5-8.8h1.1l-0.6,3.7c0.5-0.6,1.1-0.7,1.6-0.7c1.3,0,1.9,1.1,1.9,2.4
				c0,1.9-1.4,3.5-2.9,3.5C104.1,46.8,103.6,46.4,103.3,45.9z M103.6,44.3c0,1.1,0.5,1.6,1.1,1.6c1.1,0,1.8-1.2,1.8-2.5
				c0-0.9-0.4-1.6-1.1-1.6C104.5,41.7,103.6,42.7,103.6,44.3z"/>
			<path class="st4" d="M108.5,46.6l1-5.7h1.1l-1,5.7H108.5z M109.7,39.6l0.2-1.2h1.1l-0.2,1.2H109.7z"/>
			<path class="st4" d="M113.2,46.8h-0.4c-0.8,0-1.1-0.5-1.1-1.1c0-0.1,0-0.3,1.3-7.8h1.1c-1.3,7.2-1.3,7.4-1.3,7.6
				c0,0.4,0.2,0.5,0.7,0.5L113.2,46.8z"/>
			<path class="st4" d="M115,46.6l1-5.7h1.1l-1,5.7H115z M116.2,39.6l0.2-1.2h1.1l-0.2,1.2H116.2z"/>
			<path class="st4" d="M120.3,46.8h-0.9c-0.8,0-1.1-0.5-1.1-1.1c0-0.1,0-0.3,0.7-4h-0.8l0.2-0.8h0.7l0.3-1.4l1.1-0.1l-0.3,1.5h1.3
				l-0.2,0.8H120c-0.6,3.3-0.6,3.6-0.6,3.7c0,0.4,0.2,0.5,0.9,0.5h0.3L120.3,46.8z"/>
			<path class="st4" d="M122.1,46.6l1-5.7h1.1l-1,5.7H122.1z M123.3,39.6l0.2-1.2h1.1l-0.2,1.2H123.3z"/>
			<path class="st4" d="M127.4,44.2c-0.5,0-0.9-0.1-1-0.1c0,1.4,0.7,1.7,1.5,1.7c0.5,0,1.1-0.1,1.6-0.3l0,0.8
				c-0.4,0.2-1.1,0.4-1.8,0.4c-1.6,0-2.3-1.1-2.3-2.5c0-1.8,1.2-3.5,3.1-3.5c1.1,0,1.7,0.6,1.7,1.5
				C130.1,43.1,129.5,44.2,127.4,44.2z M126.5,43.4c0.2,0,0.3,0.1,0.8,0.1c1.4,0,1.8-0.6,1.8-1.1s-0.4-0.7-0.8-0.7
				C127.5,41.7,126.9,42.2,126.5,43.4z"/>
			<path class="st4" d="M130.5,46.2l0.3-1c0.2,0.2,0.8,0.6,1.5,0.6c0.7,0,1.1-0.3,1.1-0.8c0-0.5-0.5-0.7-0.9-0.8
				c-0.7-0.2-1.3-0.4-1.3-1.4c0-0.9,0.6-2,2.3-2c0.7,0,1.2,0.2,1.4,0.4l-0.3,1c-0.2-0.3-0.7-0.5-1.2-0.5c-0.6,0-1.1,0.3-1.1,0.9
				c0,0.5,0.3,0.6,1,0.8c0.5,0.2,1.2,0.5,1.2,1.4c0,0.7-0.3,2-2.3,2C131.3,46.8,130.8,46.4,130.5,46.2z"/>
			<path class="st4" d="M135.6,46.6l0.2-1h1.1l-0.2,1H135.6z"/>
			<path class="st4" d="M145.7,46.6l-1-3.2h-1.5l-0.6,3.2h-1.1l1.4-8.2h2.5c1.3,0,2.2,0.5,2.2,1.9c0,1.3-0.8,2.3-1.8,2.8l1.1,3.5
				H145.7z M143.9,39.4l-0.5,3h1.4c0.9,0,1.6-0.6,1.6-1.8c0-0.8-0.3-1.2-1.3-1.2H143.9z"/>
			<path class="st4" d="M150.4,44.2c-0.5,0-0.9-0.1-1-0.1c0,1.4,0.7,1.7,1.5,1.7c0.5,0,1.1-0.1,1.6-0.3l0,0.8
				c-0.4,0.2-1.1,0.4-1.8,0.4c-1.6,0-2.3-1.1-2.3-2.5c0-1.8,1.2-3.5,3.1-3.5c1.1,0,1.7,0.6,1.7,1.5
				C153.1,43.1,152.5,44.2,150.4,44.2z M149.5,43.4c0.2,0,0.3,0.1,0.8,0.1c1.4,0,1.8-0.6,1.8-1.1s-0.4-0.7-0.8-0.7
				C150.5,41.7,149.9,42.2,149.5,43.4z"/>
			<path class="st4" d="M156.1,46.6H155l-1-5.7h1.1l0.6,4.6l2.2-4.6h1.1L156.1,46.6z"/>
			<path class="st4" d="M161.5,44.2c-0.5,0-0.9-0.1-1-0.1c0,1.4,0.7,1.7,1.5,1.7c0.5,0,1.1-0.1,1.6-0.3l0,0.8
				c-0.4,0.2-1.1,0.4-1.8,0.4c-1.6,0-2.3-1.1-2.3-2.5c0-1.8,1.2-3.5,3.1-3.5c1.1,0,1.7,0.6,1.7,1.5
				C164.1,43.1,163.5,44.2,161.5,44.2z M160.6,43.4c0.2,0,0.3,0.1,0.8,0.1c1.4,0,1.8-0.6,1.8-1.1s-0.4-0.7-0.8-0.7
				C161.6,41.7,161,42.2,160.6,43.4z"/>
			<path class="st4" d="M169.8,45c0,0.2,0,0.4,0,0.5c0,0.4,0.1,0.5,0.5,0.5l-0.3,0.8c-0.7,0-1.2,0-1.3-0.8c-0.5,0.5-1.2,0.8-1.8,0.8
				c-1.2,0-1.9-1-1.9-2.4c0-1.8,1.3-3.5,3-3.5c0.5,0,1,0.1,1.3,0.7l0.2-0.6h0.9L169.8,45z M166,44.2c0,0.9,0.3,1.6,1.2,1.6
				c0.9,0,1.8-0.8,1.8-2.4c0-1.2-0.5-1.7-1.2-1.7C166.8,41.7,166,42.9,166,44.2z"/>
			<path class="st4" d="M173.1,46.8h-0.4c-0.8,0-1.1-0.5-1.1-1.1c0-0.1,0-0.3,1.3-7.8h1.1c-1.3,7.2-1.3,7.4-1.3,7.6
				c0,0.4,0.2,0.5,0.7,0.5L173.1,46.8z"/>
			<path class="st4" d="M176.7,44.2c-0.5,0-0.9-0.1-1-0.1c0,1.4,0.7,1.7,1.5,1.7c0.5,0,1.1-0.1,1.6-0.3l0,0.8
				c-0.4,0.2-1.1,0.4-1.8,0.4c-1.6,0-2.3-1.1-2.3-2.5c0-1.8,1.2-3.5,3.1-3.5c1.1,0,1.7,0.6,1.7,1.5
				C179.4,43.1,178.8,44.2,176.7,44.2z M175.8,43.4c0.2,0,0.3,0.1,0.8,0.1c1.4,0,1.8-0.6,1.8-1.1s-0.4-0.7-0.8-0.7
				C176.9,41.7,176.2,42.2,175.8,43.4z"/>
			<path class="st4" d="M183.7,46.6l0-0.7c-0.5,0.5-1.1,0.8-1.7,0.8c-1.1,0-1.9-1-1.9-2.4c0-1.8,1.3-3.5,3-3.5c0.5,0,1,0.1,1.3,0.7
				l0.6-3.6h1.1l-1.5,8.8H183.7z M181.3,44.2c0,0.9,0.3,1.6,1.2,1.6c0.9,0,1.8-0.8,1.8-2.4c0-1.2-0.5-1.7-1.2-1.7
				C182.1,41.7,181.3,42.9,181.3,44.2z"/>
			<path class="st4" d="M186.4,46.6l0.2-1h1.1l-0.2,1H186.4z"/>
		</g>
		<g>
			<path class="st5" d="M131.9,20.6c0.1-1.2-0.7-2-1.2-3c-0.2-0.7-0.8-1-1.2-1.6c-0.3-0.1-0.5-0.4-0.7-0.6c-0.6-0.8-1.5-1.4-2.5-1.9
				c-0.8,0-1.4-0.6-2.1-0.8l-1.7,0c-0.7,0-1.5-0.1-2,0.1l0-0.1c-0.2,0.2-1.8,0.6-2,0.8c-0.2,0,1-0.6,0.9-0.5l0,0
				c-0.5,0.4-1,0.7-1.5,1.1c-0.1,0.2-0.4,0.2-0.3,0.5l0.4,1.1c1.1-0.9,2.7-1.4,4-1.9c1.1,0.3,2.2,0.4,3.3,0.9c0.1-0.1,0.2,0,0.3,0.1
				c1,0.4,1.8,1,2.6,1.7c0.8,0.4,1.3,1.2,1.9,1.9c0.9,1.7,0.6,3.3,0.1,4.9c-0.5,1-0.6,2.2-1.5,3c-0.8,1.4-2.3,2.1-3.7,2.5
				c-2.4,0.3-5-0.5-6.9-2.1c-0.5-0.6-1.1-1.2-1.5-1.9c-1.1-2.4-1.3-4.8-0.7-7.1l-0.3-1.8c0.3-0.7,0.3-2,0.7-2.7l-0.3,0.2
				c-1.5,0-0.7,2.2-1.2,3.3c-1.2,2.8-0.9,5.8,0.4,8.7c0.9,1.5,2,2.7,3.5,3.5c2.6,1.3,5.4,2.1,8.1,0.9c2.2-0.9,3.8-2.7,4.3-5l0.1,0
				c0.1-0.5,0.5-0.9,0.5-1.4C132.1,22.6,132.3,21.5,131.9,20.6z"/>
			<path class="st6" d="M132.2,36.6c-0.9-2-2.3-3.4-3.5-5.2c-0.2-0.3,0.2-0.2,0.2-0.4c0.9-0.2,1.4,0.6,1.9,1.3
				c0.9,1.2,1.9,2.6,2,4.1c-0.2,0.1-0.2,0.2-0.4,0.3L132.2,36.6z"/>
			<path class="st7" d="M122.4,36.9c-0.3-0.4-0.4-0.8-0.4-1.2c0-1.2-0.2-2.5,0-3.6c0.2,0,0.2-0.4,0.6-0.1c0.6,0.5,0.6,1.1,0.6,1.6
				c0,1.2,0,2.4-0.2,3.5C122.8,37.1,122.6,37,122.4,36.9z"/>
			<path class="st8" d="M143.8,29.3c-2.4-0.9-5-1.5-6.9-3.2l-0.2-0.3c0.4-0.7,1.2,0.1,1.8-0.1c1.5,0.8,3.4,1.3,5.1,1.8
				c0.6,0.2,0.9,0.8,1.5,1c0.1,0.2,0.3,0.2,0.4,0.4c-0.1,0.1-0.1,0.4-0.3,0.5C144.8,29.9,144.2,29.4,143.8,29.3z"/>
			<path class="st9" d="M112.1,31.9c-0.1,0-0.2,0-0.2-0.1c0.4-1.1,1.8-1.5,2.9-1.9c0.3,0.1,0.4-0.3,0.7-0.1c0.1,0.1,0,0.3-0.1,0.4
				C114.5,30.9,113.2,31.4,112.1,31.9z"/>
			<path class="st8" d="M133.4,19c-0.1,0.1-0.1-0.1-0.2-0.1c-0.1-0.1,0-0.3-0.1-0.3c1.1-2.8,4-4.5,6.4-6.5c0.9-0.6,1.8-1.3,2.8-1.4
				c0.2,0.1,0.4,0.1,0.6,0.1c0.4,0.2,0.9-0.3,1.1,0.4c-3.2,1.6-5.8,3.9-8.6,6.2c-0.6,0.6-1.1,1.2-1.8,1.8L133.4,19z"/>
			<path class="st8" d="M110.2,24.8c-2.8,0.3-5.5,0.3-8.3,0.7c-0.2,0-0.4-0.1-0.4-0.3c0.7-0.6,1.7-0.6,2.5-0.9c2-0.2,4-0.5,6.1,0.2
				c0.2,0,0.3,0.1,0.5,0.2L110.2,24.8z"/>
			<path class="st8" d="M125.5,11.5c-0.2-0.2-0.7-0.3-0.5-0.7c0.6-1.7,1.9-3,2.8-4.6c0.9-1.4,1.7-2.8,2.7-4c0.2-0.2,0.4-0.4,0.7-0.5
				c0.3,0.1,0.6,0.3,0.8,0.4c-0.1,0.2,0.1,0.2,0.2,0.4l0.2,0.1c-0.6,0.3-0.8,1-1.2,1.6c-1.7,2.5-3.1,5.1-5.2,7.3L125.5,11.5z"/>
			<path class="st8" d="M111,18.3c-1.7-0.4-3.4-0.7-4.9-1.4c-2.3-1-4.6-2.2-6.9-3.3c-0.6-0.4-1.4-0.7-1.5-1.5c0-0.2,0-0.4,0.1-0.5
				c-0.1-0.2,0.1-0.4,0.2-0.5c0.4-0.1,0.9-0.2,1.3,0c1.7,1,3.7,1.5,5.1,3c1,0.6,2,0.9,3.2,1.3c1.7-0.5,2.7,1.1,4.1,1.8
				c0.2,0.2,0.5,0.4,0.4,0.6c-0.1,0.2-0.6,0.3-0.7,0.6L111,18.3z"/>
			<path class="st8" d="M116.9,11c-2-1.8-1.7-4.5-2.3-6.8c-0.2-2.5-0.9-0.6-1-3.1c0.1,0,0.3,0,0.3-0.1c0,0,0,0,0-0.1l0,0.1
				c0.1,0,0.2-0.2,0.3-0.1c0.5,0,0.6,0.7,0.9,1c0.4,3.2,0.7,2.1,1.4,5.3c0.1,1.4,0.9,2.7,1.4,4.1c-0.2-0.1-0.2,0.2-0.3,0.2
				C117.3,11.4,117.1,11.1,116.9,11z"/>
			<g>
				<path class="st10" d="M9.9,30.4c0.2-0.2,0.4-0.7,0.4-1.6c0.1-0.8,0.1-2.6,0.1-5.2v-1c0-2.9,0-4.8-0.1-5.6
					c-0.1-0.8-0.2-1.3-0.4-1.6h0.7c0.7,0,1.5,0,2.6-0.1c1-0.1,1.7-0.1,2.1-0.1c1.4,0,2.5,0.3,3.3,1c0.7,0.7,1.1,1.7,1.1,3
					c0,1.4-0.4,2.5-1.2,3.3c-0.8,0.9-1.8,1.3-3.1,1.3c-0.5,0-0.9,0-1.3-0.1c-0.4-0.1-0.7-0.2-1.1-0.4h0.2c1.3,0,2.2-0.4,3-1.1
					c0.7-0.7,1.1-1.7,1.1-3c0-1.1-0.3-1.9-0.7-2.4c-0.5-0.5-1.3-0.8-2.3-0.8c-0.3,0-0.6,0-0.8,0c-0.3,0-0.5,0-0.7,0.1
					c-0.1,0.3-0.1,1.1-0.2,2.2c0,1.2-0.1,2.7-0.1,4.7c0,2.9,0,4.8,0.1,5.6c0.1,0.8,0.2,1.3,0.5,1.5H9.9z"/>
				<path class="st10" d="M21.3,29.8v-2.5c0.5,0.8,1,1.4,1.8,1.8c0.7,0.4,1.5,0.6,2.4,0.6c0.9,0,1.6-0.3,2.2-0.8
					c0.6-0.5,0.8-1.2,0.8-2c0-0.6-0.2-1.2-0.6-1.7c-0.4-0.5-1-1-1.9-1.5l-0.3-0.2c-2.6-1.4-3.9-2.9-3.9-4.4c0-1.1,0.4-2.1,1.3-2.8
					c0.9-0.7,2.1-1.1,3.5-1.1c0.5,0,1,0,1.5,0c0.5,0,0.9,0,1,0c0,0,0.1,0,0.2,0c0.1,0,0.2,0,0.2,0h0.6v2.4c-0.3-0.5-0.7-0.9-1.2-1.1
					c-0.5-0.3-1.1-0.4-1.8-0.4c-1,0-1.7,0.2-2.3,0.6c-0.6,0.4-0.8,1-0.8,1.7c0,1.1,1,2.1,3.1,3.2l0.1,0.1c1.3,0.7,2.2,1.4,2.7,2
					c0.6,0.7,0.8,1.4,0.8,2.3c0,1.3-0.5,2.3-1.5,3.2c-1,0.9-2.3,1.3-3.8,1.3c-0.6,0-1.2-0.1-1.9-0.2C22.8,30.3,22.1,30.1,21.3,29.8z
					"/>
				<path class="st10" d="M36.2,30.4c0.2-0.4,0.4-0.8,0.5-1.4c0.1-0.6,0.2-1.3,0.2-2.1c0-1.4-0.2-2.8-0.6-4.1
					c-0.4-1.3-1.1-2.8-2.1-4.5c-0.4-0.6-0.7-1.2-1.1-1.7c-0.4-0.5-0.7-0.8-1-1.1h0.8h1.1c0.5,0,0.8,0.1,1.1,0.3
					c0.2,0.2,0.5,0.6,0.8,1.1c0.4,0.9,0.8,1.8,1.2,2.8c0.4,1,0.8,2.1,1.2,3.5l2-3.6l0.1-0.3c0.8-1.4,1.2-2.4,1.2-2.8
					c0-0.2,0-0.3-0.1-0.5c-0.1-0.2-0.2-0.3-0.3-0.5h3c-1.1,1.7-2,3-2.7,4.2c-0.7,1.1-1.2,2-1.6,2.6c-0.4,0.7-0.6,1.4-0.8,2.2
					c-0.2,0.8-0.2,1.9-0.2,3.5c0,0.5,0,0.9,0.1,1.3c0.1,0.4,0.2,0.8,0.3,1.1H36.2z"/>
				<path class="st10" d="M56.4,15.5l-0.1,3.2c-0.3-0.8-0.8-1.4-1.4-1.8c-0.6-0.4-1.3-0.6-2.2-0.6c-1.7,0-3,0.5-3.9,1.6
					c-0.9,1.1-1.4,2.6-1.4,4.5c0,2,0.5,3.6,1.6,4.8c1,1.2,2.4,1.8,4.2,1.8c0.8,0,1.6-0.2,2.3-0.5c0.7-0.3,1.3-0.8,1.9-1.4
					c-0.3,1.1-0.9,1.9-1.8,2.6c-0.9,0.6-2.1,1-3.4,1c-2,0-3.7-0.7-5-2.1c-1.3-1.4-1.9-3.2-1.9-5.5c0-2.5,0.7-4.4,2.1-5.8
					c1.4-1.4,3.3-2.1,5.8-2.1c0.4,0,1,0,1.7,0.1C55.5,15.4,56,15.5,56.4,15.5z"/>
				<path class="st10" d="M69.4,22v-0.8c0-2.2,0-3.6-0.1-4.3c-0.1-0.7-0.2-1.2-0.5-1.4H72c-0.2,0.2-0.4,0.7-0.5,1.5
					c-0.1,0.8-0.1,2.5-0.1,5v0.9v0.9c0,2.6,0,4.2,0.1,5c0.1,0.8,0.2,1.3,0.5,1.5h-3.2c0.2-0.3,0.4-0.8,0.5-1.5
					c0.1-0.7,0.1-2.2,0.1-4.2v-1.8h-6.9v1.8c0,2.3,0,3.7,0.1,4.4c0.1,0.7,0.2,1.1,0.4,1.4h-3.2c0.2-0.2,0.4-0.7,0.4-1.6
					c0.1-0.8,0.1-2.6,0.1-5.2v-1c0-2.9,0-4.8-0.1-5.6c-0.1-0.8-0.2-1.3-0.4-1.5h3.2c-0.2,0.2-0.4,0.7-0.4,1.4
					c-0.1,0.7-0.1,2.1-0.1,4.4V22H69.4z"/>
				<path class="st10" d="M75.3,30.4c0.2-0.2,0.4-0.7,0.4-1.6c0.1-0.8,0.1-2.6,0.1-5.2v-1c0-2.9,0-4.8-0.1-5.6
					c-0.1-0.8-0.2-1.3-0.4-1.5h3.2c-0.2,0.2-0.4,0.7-0.4,1.5c-0.1,0.8-0.1,2.5-0.1,5v0.9v0.9c0,2.6,0,4.2,0.1,5
					c0.1,0.8,0.2,1.3,0.4,1.5H75.3z"/>
				<path class="st10" d="M92.6,15.5l-0.1,3.2c-0.3-0.8-0.8-1.4-1.4-1.8c-0.6-0.4-1.3-0.6-2.2-0.6c-1.7,0-3,0.5-3.9,1.6
					c-0.9,1.1-1.4,2.6-1.4,4.5c0,2,0.5,3.6,1.6,4.8c1,1.2,2.4,1.8,4.2,1.8c0.8,0,1.6-0.2,2.3-0.5c0.7-0.3,1.3-0.8,1.9-1.4
					c-0.3,1.1-0.9,1.9-1.8,2.6c-0.9,0.6-2.1,1-3.4,1c-2,0-3.7-0.7-5-2.1c-1.3-1.4-1.9-3.2-1.9-5.5c0-2.5,0.7-4.4,2.1-5.8
					c1.4-1.4,3.3-2.1,5.8-2.1c0.4,0,1,0,1.7,0.1C91.6,15.4,92.2,15.5,92.6,15.5z"/>
				<path class="st10" d="M102,29.8v-2.5c0.5,0.8,1,1.4,1.8,1.8c0.7,0.4,1.5,0.6,2.4,0.6c0.9,0,1.6-0.3,2.2-0.8
					c0.6-0.5,0.8-1.2,0.8-2c0-0.6-0.2-1.2-0.6-1.7c-0.4-0.5-1-1-1.9-1.5l-0.3-0.2c-2.6-1.4-3.9-2.9-3.9-4.4c0-1.1,0.4-2.1,1.3-2.8
					c0.9-0.7,2-1.1,3.5-1.1c0.5,0,1,0,1.5,0c0.5,0,0.9,0,1,0c0,0,0.1,0,0.2,0c0.1,0,0.2,0,0.2,0h0.6v2.4c-0.3-0.5-0.7-0.9-1.2-1.1
					c-0.5-0.3-1.1-0.4-1.8-0.4c-1,0-1.7,0.2-2.3,0.6c-0.6,0.4-0.8,1-0.8,1.7c0,1.1,1,2.1,3.1,3.2l0.1,0.1c1.3,0.7,2.2,1.4,2.7,2
					c0.5,0.7,0.8,1.4,0.8,2.3c0,1.3-0.5,2.3-1.5,3.2c-1,0.9-2.3,1.3-3.8,1.3c-0.6,0-1.2-0.1-1.9-0.2C103.6,30.3,102.8,30.1,102,29.8
					z"/>
				<path class="st10" d="M144.5,30.4l0.1-2.2c-0.5,0.8-1.1,1.4-2,1.8c-0.8,0.4-1.8,0.6-2.8,0.6c-1.6,0-2.8-0.4-3.6-1.2
					c-0.8-0.8-1.1-2.1-1.1-3.8c0-0.5,0-1,0-1.6c0-0.6,0-1,0-1.1c0-3.1,0-5-0.1-5.8c-0.1-0.8-0.2-1.4-0.5-1.6h3.2
					c-0.2,0.2-0.4,0.8-0.5,1.8c-0.1,1-0.1,3.1-0.1,6.3c0,2.4,0.3,4,0.8,4.7c0.5,0.8,1.5,1.1,2.8,1.1c1.4,0,2.4-0.5,2.9-1.4
					c0.6-0.9,0.9-2.6,0.9-5.1c0-3.1,0-5-0.1-5.8c-0.1-0.8-0.2-1.4-0.5-1.6h3.2c-0.2,0.2-0.4,0.8-0.5,1.6c-0.1,0.8-0.1,2.8-0.1,5.8
					c0,3.1,0,5,0.1,5.8c0.1,0.8,0.2,1.4,0.5,1.6H144.5z"/>
				<path class="st10" d="M151,15.5c0.9,0,1.9,0,3-0.1c1.1-0.1,1.8-0.1,2-0.1c1.2,0,2.1,0.3,2.7,0.8c0.6,0.5,0.9,1.2,0.9,2.2
					c0,1-0.3,1.8-0.9,2.5c-0.6,0.7-1.5,1.4-2.6,1.8l3.3,4.6c0.5,0.8,1.1,1.4,1.5,1.9c0.5,0.5,0.9,0.9,1.3,1.1H160
					c-0.3,0-0.5,0-0.7-0.1c-0.2-0.1-0.3-0.2-0.5-0.5l-4-5.6c-0.3-0.4-0.6-0.7-0.8-0.8c-0.2-0.1-0.6-0.2-1-0.2h-0.2v1.4
					c0,2.3,0,3.7,0.1,4.4c0.1,0.7,0.2,1.1,0.5,1.4h-3.1c0.2-0.2,0.4-0.7,0.4-1.6c0.1-0.8,0.1-2.6,0.1-5.2v-0.9c0-2.9,0-4.8-0.1-5.6
					c-0.1-0.8-0.2-1.3-0.4-1.5H151z M152.9,22.3c0.1,0,0.3,0.1,0.4,0.1c0.2,0,0.3,0,0.5,0c1.1,0,2-0.3,2.6-0.9
					c0.6-0.6,0.9-1.4,0.9-2.5c0-0.9-0.2-1.6-0.7-2c-0.5-0.4-1.2-0.7-2.1-0.7c-0.4,0-0.7,0-0.9,0c-0.2,0-0.4,0-0.6,0.1
					c-0.1,0.3-0.1,0.9-0.2,1.6c0,0.7,0,1.7,0,3.1v0.3V22.3z"/>
				<path class="st10" d="M174,15.5l-0.1,3.2c-0.3-0.8-0.8-1.4-1.4-1.8c-0.6-0.4-1.3-0.6-2.2-0.6c-1.7,0-3,0.5-3.9,1.6
					c-0.9,1.1-1.4,2.6-1.4,4.5c0,2,0.5,3.6,1.6,4.8c1,1.2,2.4,1.8,4.2,1.8c0.8,0,1.6-0.2,2.3-0.5c0.7-0.3,1.3-0.8,1.8-1.4
					c-0.3,1.1-0.9,1.9-1.8,2.6c-0.9,0.6-2.1,1-3.4,1c-2,0-3.7-0.7-5-2.1c-1.3-1.4-1.9-3.2-1.9-5.5c0-2.5,0.7-4.4,2.1-5.8
					c1.4-1.4,3.3-2.1,5.8-2.1c0.4,0,1,0,1.7,0.1C173,15.4,173.6,15.5,174,15.5z"/>
				<path class="st10" d="M177.5,30.4c0.2-0.2,0.4-0.7,0.4-1.6c0.1-0.8,0.1-2.6,0.1-5.2v-1c0-2.9,0-4.8-0.1-5.6
					c-0.1-0.8-0.2-1.3-0.4-1.5h1.4c1,0,2.2,0,3.5,0c1.3,0,2.1,0,2.4,0c0,0,0.1,0,0.1,0c0.2,0,0.5,0,0.7,0l0.2,2.2
					c-0.2-0.5-0.5-0.8-1.1-1c-0.5-0.2-1.6-0.3-3.1-0.3h-1.3c-0.1,0.3-0.1,0.9-0.2,1.6c0,0.8-0.1,1.8-0.1,3.2V22c0.2,0,0.4,0,0.6,0
					c0.2,0,0.6,0,1.2,0c0.9,0,1.7,0,2.3-0.1c0.6,0,1.2-0.1,1.7-0.2c-0.4,0.5-1,0.8-1.7,1.1c-0.7,0.2-1.9,0.3-3.5,0.3
					c0,0-0.1,0-0.3,0c-0.1,0-0.2,0-0.3,0v1.5c0,1.4,0,2.5,0.1,3.3c0,0.8,0.1,1.3,0.2,1.6h1.3c1.5,0,2.7-0.1,3.5-0.4
					c0.8-0.2,1.4-0.7,1.8-1.2l-0.4,2.3c-0.3,0.1-0.7,0.1-1.1,0.1c-0.4,0-0.8,0-1.3,0c-0.4,0-1.1,0-2.1,0c-1.1,0-1.9,0-2.6,0H177.5z"
					/>
			</g>
			<g>
				<path class="st11" d="M192.3,15.5c0.5,0.5,0.7,1.1,0.7,1.8c0,0.7-0.3,1.3-0.7,1.8c-0.5,0.5-1.2,0.8-1.8,0.8
					c-0.7,0-1.3-0.3-1.8-0.8c-0.5-0.5-0.8-1.1-0.8-1.8c0-0.7,0.3-1.3,0.8-1.8c0.5-0.5,1.1-0.7,1.8-0.7
					C191.2,14.7,191.8,15,192.3,15.5z M192.1,15.7c-0.4-0.4-1-0.7-1.6-0.7c-0.6,0-1.2,0.2-1.6,0.6c-0.4,0.4-0.7,1-0.7,1.6
					c0,0.6,0.2,1.2,0.7,1.6c0.4,0.4,1,0.7,1.6,0.7c0.6,0,1.2-0.2,1.6-0.7c0.4-0.4,0.7-1,0.7-1.6C192.8,16.7,192.5,16.1,192.1,15.7z
					 M191.8,16.6c0,0.4-0.3,0.7-0.7,0.8l0.7,1.4h-0.6l-0.6-1.3H190v1.3h-0.5v-3h1.1C191.4,15.8,191.8,16.1,191.8,16.6z M190,16.1v1
					h0.5c0.5,0,0.8-0.1,0.8-0.5c0-0.4-0.3-0.5-0.8-0.5H190z"/>
			</g>
		</g>
	</g>
</g>
</svg>
