<?xml version="1.0" encoding="utf-8"?>
<!-- Generator: Adobe Illustrator 19.1.0, SVG Export Plug-In . SVG Version: 6.00 Build 0)  -->
<!DOCTYPE svg PUBLIC "-//W3C//DTD SVG 1.1//EN" "http://www.w3.org/Graphics/SVG/1.1/DTD/svg11.dtd">
<svg version="1.1" id="Layer_1" xmlns="http://www.w3.org/2000/svg" xmlns:xlink="http://www.w3.org/1999/xlink" x="0px" y="0px" xml:space="preserve">
<g>
	<g>
		<path fill="#666766" d="M373.23,229.99l3-17.09h2.32l-2.64,14.99h6.84l-0.39,2.1H373.23z"/>
		<path fill="#666766" d="M384.2,229.99l2.1-11.96h2.22l-2.1,11.96H384.2z M386.79,215.34l0.42-2.44h2.22l-0.42,2.44H386.79z"/>
		<path fill="#666766" d="M394.04,219.74l-1.81,10.25h-2.22l1.81-10.25h-1.76l0.54-1.71h1.51l0.54-3.03
			c0.34-1.93,1.25-3.32,3.54-3.32c0.95,0,1.66,0.24,1.86,0.32l-0.61,1.86c-0.44-0.17-0.88-0.22-1.2-0.22c-1,0-1.2,0.49-1.64,2.93
			l-0.27,1.46h2.76l-0.32,1.71H394.04z"/>
		<path fill="#666766" d="M401.61,224.87c-1,0-1.81-0.12-2.15-0.2c0,2.88,1.37,3.61,3.1,3.61c0.95,0,2.25-0.22,3.3-0.71l-0.1,1.73
			c-0.9,0.41-2.22,0.93-3.78,0.93c-3.32,0-4.88-2.27-4.88-5.18c0-3.79,2.61-7.28,6.52-7.28c2.32,0,3.56,1.24,3.56,3.05
			C407.17,222.64,405.9,224.87,401.61,224.87z M399.7,223.13c0.51,0.07,0.63,0.24,1.71,0.24c2.93,0,3.74-1.29,3.74-2.27
			c0-0.98-0.81-1.37-1.76-1.37C401.88,219.74,400.53,220.76,399.7,223.13z"/>
		<path fill="#666766" d="M410.42,216.44l-0.46-0.32l1.12-2.12l-0.68-0.22l0.37-2.1h2.37l-0.39,2.1L410.42,216.44z"/>
		<path fill="#666766" d="M411.64,229.19l0.61-2.12c0.46,0.46,1.61,1.22,3.2,1.22c1.54,0,2.25-0.71,2.25-1.71
			c0-1.15-0.95-1.49-1.78-1.76c-1.37-0.44-2.78-0.93-2.78-2.91c0-1.83,1.25-4.12,4.71-4.12c1.46,0,2.42,0.41,2.98,0.78l-0.59,2
			c-0.51-0.59-1.39-1.05-2.54-1.05c-1.32,0-2.34,0.61-2.34,1.81c0,0.98,0.68,1.25,2.17,1.76c1.05,0.37,2.49,0.98,2.49,3
			c0,1.42-0.68,4.15-4.76,4.15C413.26,230.24,412.13,229.58,411.64,229.19z"/>
		<path fill="#666766" d="M429.59,228.48l-1.29,7.42h-2.22l3.15-17.87h1.81l-0.07,1.71c1.07-1.25,2.1-1.95,3.61-1.95
			c2.73,0,4.08,2.27,4.08,5.05c0,3.79-2.47,7.4-6.01,7.4C431.33,230.24,430.25,229.72,429.59,228.48z M430.15,224.96
			c0,2.39,1.03,3.32,2.37,3.32c2.25,0,3.83-2.54,3.83-5.3c0-1.9-0.76-3.25-2.34-3.25C432.08,219.74,430.15,221.69,430.15,224.96z"/>
		<path fill="#666766" d="M440.14,225.18c0-3.93,2.73-7.4,6.57-7.4c3.05,0,4.52,2.22,4.52,5.08c0,3.91-2.73,7.37-6.57,7.37
			C441.61,230.24,440.14,228.04,440.14,225.18z M442.41,224.99c0,2.17,0.85,3.3,2.56,3.3c2.44,0,3.98-2.34,3.98-5.25
			c0-2.2-0.88-3.29-2.56-3.29C443.95,219.74,442.41,222.08,442.41,224.99z"/>
		<path fill="#666766" d="M451.94,229.19l0.61-2.12c0.46,0.46,1.61,1.22,3.2,1.22c1.54,0,2.25-0.71,2.25-1.71
			c0-1.15-0.95-1.49-1.78-1.76c-1.37-0.44-2.78-0.93-2.78-2.91c0-1.83,1.25-4.12,4.71-4.12c1.46,0,2.42,0.41,2.98,0.78l-0.59,2
			c-0.51-0.59-1.39-1.05-2.54-1.05c-1.32,0-2.34,0.61-2.34,1.81c0,0.98,0.68,1.25,2.17,1.76c1.05,0.37,2.49,0.98,2.49,3
			c0,1.42-0.68,4.15-4.76,4.15C453.55,230.24,452.42,229.58,451.94,229.19z"/>
		<path fill="#666766" d="M461.44,229.19l0.61-2.12c0.46,0.46,1.61,1.22,3.2,1.22c1.54,0,2.25-0.71,2.25-1.71
			c0-1.15-0.95-1.49-1.78-1.76c-1.37-0.44-2.78-0.93-2.78-2.91c0-1.83,1.25-4.12,4.71-4.12c1.46,0,2.42,0.41,2.98,0.78l-0.59,2
			c-0.51-0.59-1.39-1.05-2.54-1.05c-1.32,0-2.34,0.61-2.34,1.81c0,0.98,0.68,1.25,2.17,1.76c1.05,0.37,2.49,0.98,2.49,3
			c0,1.42-0.68,4.15-4.76,4.15C463.05,230.24,461.92,229.58,461.44,229.19z"/>
		<path fill="#666766" d="M471.42,229.99l2.1-11.96h2.22l-2.1,11.96H471.42z M474.01,215.34l0.42-2.44h2.22l-0.42,2.44H474.01z"/>
		<path fill="#666766" d="M479.58,228.48l-0.44,1.51h-2l3.22-18.31h2.22l-1.34,7.64c1.07-1.24,2.37-1.54,3.34-1.54
			c2.73,0,4.08,2.32,4.08,5.03c0,4-2.93,7.42-6.13,7.42C481.17,230.24,480.16,229.6,479.58,228.48z M480.16,225.01
			c0,2.37,1,3.27,2.34,3.27c2.22,0,3.86-2.49,3.86-5.25c0-1.88-0.76-3.29-2.39-3.29C482.04,219.74,480.16,221.74,480.16,225.01z"/>
		<path fill="#666766" d="M489.83,229.99l2.1-11.96h2.22l-2.1,11.96H489.83z M492.42,215.34l0.42-2.44h2.22l-0.42,2.44H492.42z"/>
		<path fill="#666766" d="M498.99,230.24h-0.76c-1.73,0-2.34-1.03-2.34-2.25c0-0.24,0.02-0.54,2.81-16.31h2.22
			c-2.64,14.99-2.71,15.45-2.71,15.82c0,0.8,0.37,0.98,1.37,0.98L498.99,230.24z"/>
		<path fill="#666766" d="M502.24,229.99l2.1-11.96h2.22l-2.1,11.96H502.24z M504.83,215.34l0.42-2.44h2.22l-0.42,2.44H504.83z"/>
		<path fill="#666766" d="M512.67,230.24h-1.83c-1.76,0-2.39-1.05-2.39-2.22c0-0.24,0.02-0.56,1.39-8.28h-1.76l0.49-1.71h1.56
			l0.54-2.96l2.25-0.22l-0.56,3.17h2.71l-0.32,1.71h-2.71c-1.22,6.96-1.29,7.45-1.29,7.79c0,0.88,0.44,0.95,1.83,0.95h0.59
			L512.67,230.24z"/>
		<path fill="#666766" d="M515.84,229.99l2.1-11.96h2.22l-2.1,11.96H515.84z M518.43,215.34l0.42-2.44h2.22l-0.41,2.44H518.43z"/>
		<path fill="#666766" d="M526.34,224.87c-1,0-1.81-0.12-2.15-0.2c0,2.88,1.37,3.61,3.1,3.61c0.95,0,2.25-0.22,3.3-0.71l-0.1,1.73
			c-0.9,0.41-2.22,0.93-3.78,0.93c-3.32,0-4.88-2.27-4.88-5.18c0-3.79,2.61-7.28,6.52-7.28c2.32,0,3.56,1.24,3.56,3.05
			C531.91,222.64,530.64,224.87,526.34,224.87z M524.44,223.13c0.51,0.07,0.63,0.24,1.71,0.24c2.93,0,3.74-1.29,3.74-2.27
			c0-0.98-0.81-1.37-1.76-1.37C526.61,219.74,525.27,220.76,524.44,223.13z"/>
		<path fill="#666766" d="M532.25,229.19l0.61-2.12c0.46,0.46,1.61,1.22,3.2,1.22c1.54,0,2.25-0.71,2.25-1.71
			c0-1.15-0.95-1.49-1.78-1.76c-1.37-0.44-2.78-0.93-2.78-2.91c0-1.83,1.25-4.12,4.71-4.12c1.46,0,2.42,0.41,2.98,0.78l-0.59,2
			c-0.51-0.59-1.39-1.05-2.54-1.05c-1.32,0-2.34,0.61-2.34,1.81c0,0.98,0.68,1.25,2.17,1.76c1.05,0.37,2.49,0.98,2.49,3
			c0,1.42-0.68,4.15-4.76,4.15C533.86,230.24,532.74,229.58,532.25,229.19z"/>
		<path fill="#666766" d="M542.16,229.99l0.37-2.1h2.22l-0.37,2.1H542.16z"/>
		<path fill="#666766" d="M562.09,229.99l-2.15-6.67h-3.12l-1.17,6.67h-2.39l3-17.09h5.2c2.73,0,4.57,0.95,4.57,3.88
			c0,2.78-1.66,4.88-3.74,5.93l2.27,7.28H562.09z M558.33,214.78l-1.12,6.3h2.93c1.93,0,3.42-1.2,3.42-3.69
			c0-1.71-0.71-2.61-2.64-2.61H558.33z"/>
		<path fill="#666766" d="M571.39,224.87c-1,0-1.81-0.12-2.15-0.2c0,2.88,1.37,3.61,3.1,3.61c0.95,0,2.25-0.22,3.3-0.71l-0.1,1.73
			c-0.9,0.41-2.22,0.93-3.78,0.93c-3.32,0-4.88-2.27-4.88-5.18c0-3.79,2.61-7.28,6.52-7.28c2.32,0,3.56,1.24,3.56,3.05
			C576.96,222.64,575.69,224.87,571.39,224.87z M569.49,223.13c0.51,0.07,0.63,0.24,1.71,0.24c2.93,0,3.74-1.29,3.74-2.27
			c0-0.98-0.81-1.37-1.76-1.37C571.66,219.74,570.32,220.76,569.49,223.13z"/>
		<path fill="#666766" d="M582.7,229.99h-2.27l-2.03-11.96h2.34l1.25,9.54l4.57-9.54h2.37L582.7,229.99z"/>
		<path fill="#666766" d="M593.3,224.87c-1,0-1.81-0.12-2.15-0.2c0,2.88,1.37,3.61,3.1,3.61c0.95,0,2.25-0.22,3.3-0.71l-0.1,1.73
			c-0.9,0.41-2.22,0.93-3.78,0.93c-3.32,0-4.88-2.27-4.88-5.18c0-3.79,2.61-7.28,6.52-7.28c2.32,0,3.56,1.24,3.56,3.05
			C598.87,222.64,597.6,224.87,593.3,224.87z M591.39,223.13c0.51,0.07,0.63,0.24,1.71,0.24c2.93,0,3.74-1.29,3.74-2.27
			c0-0.98-0.81-1.37-1.76-1.37C593.57,219.74,592.22,220.76,591.39,223.13z"/>
		<path fill="#666766" d="M610.02,226.5c-0.07,0.39-0.1,0.73-0.1,0.95c0,0.78,0.29,1.03,1.15,1.03l-0.61,1.76
			c-1.39,0-2.44-0.05-2.78-1.76c-0.98,1.15-2.44,1.76-3.74,1.76c-2.42,0-3.98-2.17-3.98-5.03c0-3.74,2.64-7.42,6.3-7.42
			c1,0,2.15,0.27,2.78,1.51l0.46-1.27h1.95L610.02,226.5z M602.26,224.99c0,1.83,0.71,3.3,2.42,3.3c1.86,0,3.83-1.76,3.83-5.05
			c0-2.44-1.07-3.49-2.49-3.49C603.87,219.74,602.26,222.2,602.26,224.99z"/>
		<path fill="#666766" d="M616.33,230.24h-0.76c-1.73,0-2.34-1.03-2.34-2.25c0-0.24,0.02-0.54,2.81-16.31h2.22
			c-2.64,14.99-2.71,15.45-2.71,15.82c0,0.8,0.37,0.98,1.37,0.98L616.33,230.24z"/>
		<path fill="#666766" d="M623.38,224.87c-1,0-1.81-0.12-2.15-0.2c0,2.88,1.37,3.61,3.1,3.61c0.95,0,2.25-0.22,3.3-0.71l-0.1,1.73
			c-0.9,0.41-2.22,0.93-3.78,0.93c-3.32,0-4.88-2.27-4.88-5.18c0-3.79,2.61-7.28,6.52-7.28c2.32,0,3.56,1.24,3.56,3.05
			C628.95,222.64,627.68,224.87,623.38,224.87z M621.48,223.13c0.51,0.07,0.63,0.24,1.71,0.24c2.93,0,3.74-1.29,3.74-2.27
			c0-0.98-0.81-1.37-1.76-1.37C623.65,219.74,622.31,220.76,621.48,223.13z"/>
		<path fill="#666766" d="M637.45,229.99l0.1-1.51c-1,1.15-2.25,1.76-3.52,1.76c-2.39,0-3.98-2.17-3.98-5.05
			c0-3.71,2.64-7.4,6.3-7.4c1,0,2.15,0.27,2.78,1.51l1.34-7.62h2.22l-3.22,18.31H637.45z M632.35,224.99c0,1.83,0.71,3.3,2.42,3.3
			c1.86,0,3.83-1.76,3.83-5.05c0-2.44-1.07-3.49-2.49-3.49C633.96,219.74,632.35,222.2,632.35,224.99z"/>
		<path fill="#666766" d="M642.41,229.99l0.37-2.1H645l-0.37,2.1H642.41z"/>
	</g>
	<g>
		<path fill="#C04647" stroke="#C04647" stroke-width="1.3226" stroke-linecap="round" stroke-linejoin="round" d="M352.9,186.46
			c0.15-2.62-1.63-4.58-2.78-6.76c-0.44-1.48-1.84-2.29-2.71-3.54c-0.73-0.2-1.1-0.92-1.67-1.36c-1.34-1.92-3.42-3.19-5.59-4.37
			c-1.72-0.05-3.08-1.43-4.8-1.78l-3.86-0.08c-1.52,0.02-3.38-0.12-4.52,0.33l-0.05-0.12c-0.41,0.38-4.12,1.37-4.45,1.75
			c-0.44,0.1,2.36-1.41,1.99-1.07l0.1,0.02c-1.22,0.92-2.19,1.54-3.42,2.46c-0.21,0.38-0.86,0.55-0.7,1.12l0.89,2.56
			c2.57-2.01,6.04-3.11,9.1-4.23c2.51,0.67,5.04,0.98,7.38,1.98c0.26-0.27,0.45,0.09,0.61,0.13c2.18,0.81,4.04,2.28,5.82,3.78
			c1.73,1.01,3.03,2.69,4.2,4.32c2.06,3.76,1.38,7.44,0.29,11.2c-1.15,2.31-1.36,5.09-3.33,6.87c-1.71,3.1-5.23,4.84-8.5,5.73
			c-5.38,0.71-11.29-1.13-15.59-4.79c-1.17-1.43-2.56-2.66-3.44-4.34c-2.42-5.39-2.94-10.81-1.51-16.1l-0.74-4.02
			c0.77-1.69,0.78-4.57,1.58-6.1l-0.64,0.4c-3.3,0.06-1.57,4.9-2.66,7.54c-2.75,6.46-1.99,13.19,0.79,19.7
			c1.96,3.35,4.57,6.07,7.98,8.03c5.96,2.86,12.16,4.76,18.44,1.96c4.97-1.94,8.72-6.06,9.82-11.32l0.19-0.07
			c0.3-1.14,1.06-2.13,1.06-3.27C353.18,191.01,353.77,188.59,352.9,186.46z"/>
		<path fill="#C04647" stroke="#C04647" stroke-width="1.0581" stroke-linecap="round" stroke-linejoin="round" d="M361.63,228.54
			c-2.89-6.07-7.46-10.33-11.27-15.6c-0.59-0.81,0.57-0.58,0.62-1.21c2.8-0.57,4.37,2.04,5.96,3.94c2.97,3.54,5.94,7.77,6.45,12.26
			c-0.46,0.42-0.73,0.55-1.35,0.72L361.63,228.54z"/>
		<path fill="#C04647" stroke="#C04647" stroke-width="1.0581" stroke-linecap="round" stroke-linejoin="round" d="M327.91,233.23
			c-0.73-1.14-0.6-2.46-0.45-3.78c0.65-4.25,1.03-8.67,2.36-12.83c0.67-0.27,0.86-1.68,1.78-0.9c1.37,1.33,0.92,3.41,0.65,5.08
			c-0.7,4.21-1.55,8.49-2.93,12.51C328.91,233.58,328.3,233.47,327.91,233.23z"/>
		<path fill="#C04647" stroke="#C04647" stroke-width="1.0581" stroke-linecap="round" stroke-linejoin="round" d="M379.74,200.61
			c-5.46-2.03-11.33-3.45-15.55-7.31l-0.41-0.59c0.88-1.54,2.73,0.32,4.03-0.28c3.51,1.85,7.71,2.85,11.55,4.06
			c1.36,0.38,2.08,1.72,3.41,2.18c0.14,0.56,0.75,0.46,0.94,0.96c-0.31,0.34-0.29,0.89-0.69,1.2
			C382,201.84,380.75,200.86,379.74,200.61z"/>
		<path fill="#C04647" stroke="#C04647" stroke-width="1.0581" stroke-linecap="round" stroke-linejoin="round" d="M305.11,214.1
			c-0.21-0.11-0.5-0.05-0.56-0.33c1.35-3.09,4.82-4.45,7.71-5.89c0.74,0.11,1.04-0.92,1.77-0.48c0.12,0.38-0.1,0.82-0.31,1.09
			C311.3,211.04,307.95,212.62,305.11,214.1z"/>
		<path fill="#C04647" stroke="#C04647" stroke-width="1.0581" stroke-linecap="round" stroke-linejoin="round" d="M356.17,177.24
			c-0.21,0.13-0.19-0.24-0.4-0.24c-0.18-0.22,0.07-0.6-0.3-0.72c2.53-6.44,9.01-10.31,14.42-14.71c2.06-1.3,3.97-2.96,6.31-3.25
			c0.38,0.28,0.91,0.26,1.39,0.2c0.83,0.47,2.14-0.68,2.52,0.89c-7.21,3.74-13.23,8.81-19.44,14.05c-1.26,1.4-2.55,2.81-4.08,4.06
			L356.17,177.24z"/>
		<path fill="#C04647" stroke="#C04647" stroke-width="1.0581" stroke-linecap="round" stroke-linejoin="round" d="M303.65,190.42
			c-6.24,0.65-12.57,0.69-18.73,1.49c-0.38-0.11-0.98-0.22-0.9-0.76c1.63-1.38,3.88-1.44,5.78-2.07c4.43-0.47,9.16-1.23,13.79,0.41
			c0.48-0.08,0.78,0.25,1.07,0.56L303.65,190.42z"/>
		<path fill="#C04647" stroke="#C04647" stroke-width="1.0581" stroke-linecap="round" stroke-linejoin="round" d="M338.34,160.24
			c-0.46-0.39-1.66-0.62-1.11-1.58c1.46-3.85,4.36-6.77,6.27-10.35c1.96-3.09,3.78-6.31,6.21-9.1c0.52-0.35,0.89-0.96,1.54-1.02
			c0.75,0.27,1.42,0.59,1.92,0.94c-0.29,0.42,0.19,0.54,0.36,0.8l0.49,0.24c-1.35,0.71-1.86,2.35-2.77,3.52
			c-3.81,5.62-7.04,11.61-11.91,16.52L338.34,160.24z"/>
		<path fill="#C04647" stroke="#C04647" stroke-width="1.0581" stroke-linecap="round" stroke-linejoin="round" d="M305.43,175.5
			c-3.8-0.93-7.68-1.48-11.13-3.21c-5.32-2.34-10.4-5.01-15.67-7.46c-1.33-0.81-3.23-1.67-3.34-3.49c-0.05-0.43,0.05-0.89,0.23-1.21
			c-0.29-0.54,0.32-0.81,0.47-1.24c0.96-0.22,1.99-0.42,2.97,0.03c3.89,2.22,8.45,3.49,11.6,6.87c2.16,1.45,4.62,2.13,7.25,2.9
			c3.93-1.23,6.23,2.61,9.27,4.04c0.36,0.4,1.09,0.81,0.9,1.46c-0.33,0.49-1.31,0.67-1.55,1.26L305.43,175.5z"/>
		<path fill="#C04647" stroke="#C04647" stroke-width="1.0581" stroke-linecap="round" stroke-linejoin="round" d="M318.68,159.01
			c-4.56-4.15-3.86-10.2-5.32-15.4c-0.55-5.7-1.93-11.25-2.35-16.97c0.3-0.1,0.68-0.03,0.78-0.18c-0.06-0.06-0.04-0.11-0.03-0.15
			l0.08,0.12c0.11-0.04,0.4-0.4,0.69-0.32c1.22,0.05,1.37,1.52,1.97,2.37c0.8,7.29,1.62,14.69,3.23,21.87c0.21,3.24,2,6.2,3.17,9.27
			c-0.46-0.14-0.42,0.41-0.74,0.55C319.58,160.03,319.25,159.29,318.68,159.01z"/>
		<g>
			<path fill="#333333" stroke="#333333" stroke-width="0.4686" d="M76.08,202.99c0.48-0.51,0.82-1.7,1.01-3.54
				c0.2-1.85,0.29-5.79,0.29-11.84v-2.17c0-6.63-0.09-10.84-0.29-12.67c-0.2-1.83-0.53-3-1.01-3.52h1.67c1.55,0,3.5-0.07,5.82-0.23
				c2.32-0.16,3.88-0.23,4.67-0.23c3.26,0,5.72,0.76,7.39,2.29c1.66,1.52,2.5,3.78,2.5,6.77c0,3.09-0.91,5.61-2.72,7.56
				c-1.81,1.97-4.16,2.94-7.01,2.94c-1.03,0-1.99-0.1-2.87-0.3c-0.88-0.19-1.68-0.48-2.41-0.86h0.54c2.86,0,5.1-0.8,6.72-2.42
				c1.62-1.61,2.43-3.85,2.43-6.72c0-2.42-0.57-4.22-1.7-5.39c-1.13-1.18-2.86-1.76-5.19-1.76c-0.67,0-1.29,0.02-1.88,0.06
				c-0.57,0.04-1.13,0.1-1.64,0.19c-0.17,0.74-0.3,2.42-0.37,5.04c-0.08,2.62-0.12,6.16-0.12,10.63c0,6.63,0.1,10.85,0.29,12.66
				c0.2,1.82,0.54,2.99,1.02,3.5H76.08z"/>
			<path fill="#333333" stroke="#333333" stroke-width="0.4686" d="M101.88,201.65v-5.75c1.05,1.73,2.38,3.07,4,3.99
				c1.62,0.92,3.45,1.39,5.49,1.39c2.04,0,3.7-0.6,4.98-1.81c1.28-1.2,1.91-2.74,1.91-4.62c0-1.47-0.43-2.75-1.28-3.87
				c-0.86-1.12-2.31-2.23-4.36-3.33l-0.69-0.38c-5.93-3.24-8.89-6.53-8.89-9.88c0-2.58,1.01-4.7,3.03-6.34
				c2.02-1.64,4.66-2.45,7.91-2.45c1.04,0,2.19,0.03,3.43,0.1c1.24,0.07,1.97,0.1,2.18,0.1c0.06,0,0.21,0.01,0.42,0.03
				c0.21,0.02,0.4,0.03,0.55,0.03h1.32v5.45c-0.67-1.11-1.59-1.96-2.78-2.54c-1.19-0.58-2.59-0.87-4.18-0.87
				c-2.19,0-3.92,0.48-5.18,1.44c-1.27,0.96-1.9,2.26-1.9,3.89c0,2.41,2.32,4.85,6.98,7.31l0.34,0.16c2.9,1.54,4.98,3.07,6.22,4.58
				c1.25,1.51,1.88,3.22,1.88,5.12c0,2.84-1.16,5.25-3.47,7.25c-2.31,2-5.16,3-8.56,3c-1.35,0-2.8-0.16-4.32-0.49
				C105.37,202.84,103.71,202.33,101.88,201.65z"/>
			<path fill="#333333" stroke="#333333" stroke-width="0.4686" d="M135.61,202.99c0.46-0.8,0.79-1.87,1.02-3.2
				c0.24-1.31,0.36-2.88,0.36-4.7c0-3.27-0.45-6.36-1.34-9.28c-0.89-2.92-2.48-6.35-4.77-10.29c-0.86-1.47-1.69-2.75-2.49-3.83
				c-0.81-1.08-1.53-1.89-2.17-2.44h1.8h2.46c1.09,0,1.9,0.22,2.45,0.63c0.55,0.42,1.14,1.28,1.78,2.59c1,2.06,1.92,4.19,2.78,6.41
				c0.86,2.22,1.78,4.83,2.76,7.85l4.47-8.2l0.33-0.61c1.75-3.28,2.62-5.42,2.62-6.45c0-0.39-0.08-0.77-0.24-1.14
				c-0.16-0.37-0.4-0.73-0.71-1.07h6.74c-2.52,3.75-4.59,6.91-6.21,9.47c-1.62,2.56-2.8,4.54-3.53,5.94
				c-0.81,1.62-1.39,3.28-1.73,4.99c-0.36,1.73-0.53,4.38-0.53,7.95c0,1.03,0.08,1.98,0.25,2.87c0.17,0.88,0.44,1.71,0.79,2.5
				H135.61z"/>
			<path fill="#333333" stroke="#333333" stroke-width="0.4686" d="M181.6,169.21l-0.31,7.27c-0.75-1.85-1.81-3.24-3.15-4.18
				c-1.35-0.93-2.99-1.4-4.93-1.4c-3.76,0-6.72,1.24-8.86,3.73c-2.15,2.49-3.22,5.92-3.22,10.29c0,4.51,1.18,8.1,3.53,10.79
				c2.35,2.67,5.5,4.01,9.43,4.01c1.87,0,3.61-0.36,5.23-1.07c1.62-0.72,3.02-1.74,4.2-3.07c-0.62,2.45-2,4.41-4.15,5.88
				c-2.15,1.46-4.73,2.2-7.74,2.2c-4.6,0-8.36-1.6-11.3-4.82c-2.95-3.2-4.42-7.32-4.42-12.37c0-5.58,1.58-9.95,4.75-13.11
				c3.17-3.16,7.55-4.74,13.13-4.74c0.87,0,2.18,0.1,3.92,0.3C179.42,169.11,180.73,169.21,181.6,169.21z"/>
			<path fill="#333333" stroke="#333333" stroke-width="0.4686" d="M211.12,184.01v-1.74c0-4.94-0.11-8.19-0.3-9.77
				c-0.2-1.58-0.56-2.66-1.08-3.24h7.22c-0.49,0.5-0.84,1.64-1.03,3.42c-0.19,1.79-0.29,5.58-0.29,11.38v2.05v2.01
				c0,5.83,0.1,9.63,0.29,11.43c0.19,1.79,0.53,2.93,1.03,3.43h-7.22c0.52-0.61,0.88-1.74,1.08-3.41c0.2-1.68,0.3-4.89,0.3-9.64
				v-4.01h-15.75v4.01c0,5.16,0.1,8.48,0.29,9.98c0.19,1.51,0.53,2.52,1.01,3.07h-7.15c0.48-0.51,0.82-1.7,1.02-3.54
				c0.2-1.85,0.3-5.81,0.3-11.87v-2.16c0-6.6-0.1-10.83-0.3-12.65c-0.2-1.82-0.54-2.99-1.02-3.51h7.15
				c-0.48,0.55-0.82,1.57-1.01,3.06c-0.19,1.49-0.29,4.81-0.29,9.95v1.74H211.12z"/>
			<path fill="#333333" stroke="#333333" stroke-width="0.4686" d="M224.39,202.99c0.48-0.51,0.82-1.7,1.02-3.54
				c0.2-1.86,0.3-5.81,0.3-11.87v-2.16c0-6.6-0.11-10.83-0.3-12.65c-0.2-1.82-0.54-2.99-1.02-3.51h7.15
				c-0.48,0.5-0.82,1.64-1.02,3.42c-0.2,1.79-0.29,5.57-0.29,11.38v2.05v2.03c0,5.82,0.09,9.62,0.29,11.42
				c0.2,1.79,0.54,2.93,1.02,3.43H224.39z"/>
			<path fill="#333333" stroke="#333333" stroke-width="0.4686" d="M263.57,169.21l-0.31,7.27c-0.75-1.85-1.81-3.24-3.16-4.18
				c-1.35-0.93-2.99-1.4-4.93-1.4c-3.76,0-6.71,1.24-8.86,3.73c-2.15,2.49-3.22,5.92-3.22,10.29c0,4.51,1.17,8.1,3.52,10.79
				c2.35,2.67,5.5,4.01,9.43,4.01c1.86,0,3.61-0.36,5.22-1.07c1.62-0.72,3.02-1.74,4.2-3.07c-0.61,2.45-2,4.41-4.15,5.88
				c-2.15,1.46-4.73,2.2-7.75,2.2c-4.59,0-8.36-1.6-11.31-4.82c-2.95-3.2-4.41-7.32-4.41-12.37c0-5.58,1.58-9.95,4.75-13.11
				c3.17-3.16,7.54-4.74,13.13-4.74c0.88,0,2.18,0.1,3.92,0.3C261.4,169.11,262.7,169.21,263.57,169.21z"/>
			<path fill="#333333" stroke="#333333" stroke-width="0.4686" d="M285.04,201.65v-5.75c1.04,1.73,2.38,3.07,3.99,3.99
				c1.63,0.92,3.46,1.39,5.49,1.39c2.04,0,3.7-0.6,4.98-1.81c1.28-1.2,1.91-2.74,1.91-4.62c0-1.47-0.42-2.75-1.29-3.87
				c-0.85-1.12-2.31-2.23-4.35-3.33l-0.69-0.38c-5.93-3.24-8.89-6.53-8.89-9.88c0-2.58,1.02-4.7,3.04-6.34
				c2.02-1.64,4.65-2.45,7.91-2.45c1.03,0,2.18,0.03,3.42,0.1c1.25,0.07,1.96,0.1,2.16,0.1c0.08,0,0.23,0.01,0.44,0.03
				c0.22,0.02,0.39,0.03,0.55,0.03h1.31v5.45c-0.67-1.11-1.6-1.96-2.78-2.54c-1.19-0.58-2.58-0.87-4.18-0.87
				c-2.18,0-3.92,0.48-5.18,1.44c-1.27,0.96-1.9,2.26-1.9,3.89c0,2.41,2.33,4.85,6.98,7.31l0.34,0.16c2.92,1.54,4.98,3.07,6.23,4.58
				c1.25,1.51,1.87,3.22,1.87,5.12c0,2.84-1.15,5.25-3.47,7.25c-2.32,2-5.17,3-8.56,3c-1.35,0-2.8-0.16-4.32-0.49
				C288.53,202.84,286.86,202.33,285.04,201.65z"/>
			<path fill="#333333" stroke="#333333" stroke-width="0.4686" d="M381.39,202.99l0.15-4.92c-1.11,1.78-2.6,3.17-4.47,4.13
				c-1.9,0.96-4.05,1.45-6.44,1.45c-3.72,0-6.44-0.91-8.17-2.71c-1.74-1.82-2.59-4.67-2.59-8.57c0-1.05,0.02-2.27,0.04-3.66
				c0.02-1.4,0.02-2.26,0.02-2.59c0-6.92-0.09-11.33-0.3-13.22c-0.2-1.9-0.54-3.11-1.03-3.64h7.16c-0.52,0.48-0.88,1.81-1.08,3.97
				c-0.2,2.17-0.31,6.94-0.31,14.32c0,5.39,0.61,8.96,1.83,10.68c1.22,1.72,3.36,2.58,6.41,2.58c3.12,0,5.34-1.06,6.65-3.21
				c1.32-2.15,1.98-5.97,1.98-11.48c0-6.94-0.1-11.36-0.29-13.26c-0.19-1.89-0.54-3.1-1.03-3.61h7.22
				c-0.51,0.52-0.87,1.72-1.07,3.61c-0.2,1.9-0.3,6.31-0.3,13.24c0,6.94,0.1,11.35,0.3,13.26c0.2,1.9,0.56,3.1,1.07,3.62H381.39z"/>
			<path fill="#333333" stroke="#333333" stroke-width="0.4686" d="M396.05,169.25c2.07,0,4.36-0.07,6.9-0.2
				c2.53-0.14,4.05-0.2,4.55-0.2c2.66,0,4.66,0.57,6.04,1.71c1.38,1.14,2.06,2.81,2.06,5.03c0,2.16-0.67,4.09-2.02,5.78
				c-1.36,1.69-3.34,3.08-5.96,4.18l7.53,10.48c1.25,1.73,2.4,3.17,3.45,4.33c1.05,1.16,2,2.02,2.85,2.61h-4.99
				c-0.66,0-1.17-0.09-1.52-0.27c-0.35-0.18-0.73-0.55-1.13-1.1l-8.98-12.64c-0.65-0.93-1.27-1.54-1.83-1.83
				c-0.57-0.29-1.3-0.44-2.19-0.44h-0.41v3.21c0,5.16,0.09,8.49,0.28,9.99c0.21,1.51,0.55,2.52,1.02,3.07h-7.14
				c0.48-0.51,0.82-1.7,1.02-3.54c0.19-1.86,0.29-5.81,0.29-11.88v-2.15c0-6.61-0.1-10.83-0.29-12.65c-0.2-1.82-0.54-2.99-1.02-3.51
				H396.05z M400.38,184.66c0.31,0.08,0.63,0.12,1,0.16c0.37,0.03,0.76,0.05,1.21,0.05c2.56,0,4.53-0.67,5.89-2
				c1.38-1.34,2.07-3.26,2.07-5.75c0-2.07-0.54-3.62-1.57-4.63c-1.06-1.01-2.65-1.52-4.8-1.52c-0.83,0-1.5,0.02-1.97,0.03
				c-0.47,0.03-0.92,0.07-1.35,0.12c-0.17,0.75-0.3,1.95-0.38,3.59c-0.07,1.64-0.11,3.96-0.11,6.96v0.57V184.66z"/>
			<path fill="#333333" stroke="#333333" stroke-width="0.4686" d="M448.25,169.21l-0.3,7.27c-0.76-1.85-1.81-3.24-3.16-4.18
				c-1.35-0.93-3-1.4-4.92-1.4c-3.77,0-6.72,1.24-8.87,3.73c-2.14,2.49-3.22,5.92-3.22,10.29c0,4.51,1.18,8.1,3.53,10.79
				c2.35,2.67,5.5,4.01,9.43,4.01c1.87,0,3.61-0.36,5.23-1.07c1.61-0.72,3-1.74,4.19-3.07c-0.63,2.45-2,4.41-4.16,5.88
				c-2.15,1.46-4.73,2.2-7.75,2.2c-4.59,0-8.37-1.6-11.32-4.82c-2.93-3.2-4.41-7.32-4.41-12.37c0-5.58,1.58-9.95,4.75-13.11
				c3.17-3.16,7.55-4.74,13.14-4.74c0.86,0,2.19,0.1,3.91,0.3C446.07,169.11,447.38,169.21,448.25,169.21z"/>
			<path fill="#333333" stroke="#333333" stroke-width="0.4686" d="M456.17,203c0.49-0.51,0.83-1.69,1.02-3.54
				c0.2-1.85,0.3-5.79,0.3-11.86v-2.17c0-6.61-0.1-10.82-0.3-12.65c-0.19-1.82-0.53-2.99-1.02-3.51h3.27c2.33,0,4.98-0.02,7.92-0.08
				c2.94-0.05,4.76-0.07,5.38-0.07c0.03,0,0.14,0.01,0.32,0.03c0.53,0.02,1.04,0.03,1.54,0.03l0.41,4.96
				c-0.41-1.08-1.24-1.82-2.48-2.25c-1.24-0.43-3.61-0.64-7.1-0.64h-2.93c-0.17,0.74-0.3,1.95-0.38,3.65
				c-0.07,1.7-0.12,4.16-0.12,7.36V184c0.44,0.03,0.92,0.06,1.47,0.08c0.55,0.02,1.43,0.02,2.65,0.02c2.06,0,3.81-0.05,5.21-0.14
				c1.4-0.09,2.66-0.25,3.78-0.45c-0.97,1.12-2.25,1.92-3.83,2.39c-1.57,0.47-4.22,0.7-7.92,0.7c-0.08,0-0.27-0.01-0.57-0.02
				c-0.3-0.02-0.57-0.03-0.79-0.03v3.41c0,3.21,0.04,5.68,0.12,7.39c0.08,1.72,0.2,2.95,0.38,3.68h3.03c3.48,0,6.09-0.27,7.85-0.83
				c1.75-0.56,3.09-1.48,4.05-2.78l-0.9,5.26c-0.71,0.14-1.5,0.24-2.4,0.31c-0.9,0.07-1.85,0.11-2.84,0.11
				c-0.81,0-2.39-0.02-4.79-0.05c-2.4-0.03-4.39-0.05-6.01-0.05H456.17z"/>
		</g>
		<g>
			<path fill="#333333" d="M489.91,169.26c1.1,1.1,1.68,2.57,1.68,4.13c0,1.6-0.59,3.04-1.7,4.11c-1.17,1.13-2.64,1.75-4.17,1.75
				c-1.55,0-3-0.62-4.13-1.75c-1.11-1.1-1.72-2.57-1.72-4.11c0-1.55,0.62-3.04,1.77-4.18c1.07-1.09,2.49-1.68,4.08-1.68
				C487.32,167.53,488.78,168.13,489.91,169.26z M489.41,169.75c-1-1-2.27-1.52-3.68-1.52c-1.38,0-2.64,0.51-3.59,1.47
				c-1.01,1.02-1.55,2.32-1.55,3.69c0,1.35,0.54,2.62,1.52,3.62c0.98,1,2.26,1.52,3.61,1.52c1.38,0,2.68-0.52,3.69-1.52
				c0.96-0.94,1.5-2.2,1.5-3.59C490.9,172.02,490.38,170.72,489.41,169.75z M488.68,171.79c0,0.93-0.58,1.62-1.57,1.78l1.51,3.07
				h-1.26l-1.41-2.91h-1.41v2.91h-1.13v-6.69h2.49C487.75,169.95,488.68,170.53,488.68,171.79z M484.54,170.68V173h1.17
				c1.24,0,1.81-0.28,1.81-1.13c0-0.87-0.59-1.19-1.85-1.19H484.54z"/>
		</g>
	</g>
</g>
</svg>
